<svg width="108" height="78" viewBox="0 0 108 78" fill="none" xmlns="http://www.w3.org/2000/svg">
<path d="M72.293 38.102L106.533 7.39645C108.126 5.94808 108.271 3.48584 106.822 1.86366C105.374 0.270445 102.912 0.125607 101.289 1.57398L54.0724 43.9535L44.8608 35.7267C44.8318 35.6977 44.8028 35.6688 44.8028 35.6398C44.6 35.437 44.3973 35.2632 44.1655 35.0894L6.68157 1.54502C5.05939 0.09664 2.59715 0.241477 1.14878 1.86366C-0.2996 3.48584 -0.154763 5.94808 1.46742 7.39645L36.1126 38.3627L1.61226 70.6615C0.0480095 72.1389 -0.0388925 74.6011 1.43845 76.1943C2.22057 77.0054 3.2634 77.4399 4.30623 77.4399C5.26216 77.4399 6.21809 77.0923 6.97125 76.3971L41.993 43.6348L51.4943 52.1223C52.2475 52.7886 53.1744 53.1072 54.1014 53.1072C55.0284 53.1072 55.9843 52.7596 56.7085 52.0933L66.4705 43.3451L101.289 76.426C102.043 77.1502 103.028 77.4978 103.983 77.4978C105.026 77.4978 106.04 77.0923 106.822 76.2812C108.3 74.717 108.242 72.2258 106.677 70.7484L72.293 38.102Z" fill="white" fill-opacity="0.4"/>
</svg>
